<svg width="104" height="64" viewBox="0 0 104 64" fill="none" xmlns="http://www.w3.org/2000/svg">
<g clip-path="url(#clip0_2183_1103)">
<path d="M0 4C0 1.79086 1.79086 0 4 0H100C102.209 0 104 1.79086 104 4V60C104 62.2091 102.209 64 100 64H4C1.79086 64 0 62.2091 0 60V4Z" fill="#EEFFF2"/>
<g clip-path="url(#clip1_2183_1103)">
<mask id="path-3-inside-1_2183_1103" fill="white">
<path d="M12 16C12 13.7909 13.7909 12 16 12H104V64H12V16Z"/>
</mask>
<path d="M12 16C12 13.7909 13.7909 12 16 12H104V64H12V16Z" fill="white"/>
<rect width="92" height="20.6809" transform="translate(12 12)" fill="white"/>
<rect x="12" y="32.6808" width="92" height="0.574468" rx="0.287234" fill="#E6E6E6"/>
<g clip-path="url(#clip2_2183_1103)">
<rect width="92" height="30.7447" transform="translate(12 33.2553)" fill="white"/>
<rect x="20" y="41.2553" width="186.128" height="8" rx="1.7234" fill="#F2F2F2"/>
<rect x="20" y="53.2553" width="152.234" height="8" rx="1.7234" fill="#F2F2F2"/>
</g>
</g>
<path d="M11 16C11 13.2386 13.2386 11 16 11H104V13H16C14.3431 13 13 14.3431 13 16H11ZM104 64H12H104ZM11 64V16C11 13.2386 13.2386 11 16 11V13C14.3431 13 13 14.3431 13 16V64H11ZM104 12V64V12Z" fill="#E6E6E6" mask="url(#path-3-inside-1_2183_1103)"/>
<rect opacity="0.2" width="104" height="64" fill="#EEFFF2"/>
<path d="M36.5 32C36.5 25.6487 41.6487 20.5 48 20.5H56C62.3513 20.5 67.5 25.6487 67.5 32C67.5 38.3513 62.3513 43.5 56 43.5H48C41.6487 43.5 36.5 38.3513 36.5 32Z" fill="white"/>
<path d="M36.5 32C36.5 25.6487 41.6487 20.5 48 20.5H56C62.3513 20.5 67.5 25.6487 67.5 32C67.5 38.3513 62.3513 43.5 56 43.5H48C41.6487 43.5 36.5 38.3513 36.5 32Z" stroke="#E6E6E6"/>
<path fill-rule="evenodd" clip-rule="evenodd" d="M56.4714 27.5286C56.7317 27.7889 56.7317 28.211 56.4714 28.4714L49.138 35.8047C48.8777 36.0651 48.4556 36.0651 48.1952 35.8047L44.8619 32.4714C44.6015 32.211 44.6015 31.7889 44.8619 31.5286C45.1222 31.2682 45.5443 31.2682 45.8047 31.5286L48.6666 34.3905L55.5286 27.5286C55.7889 27.2682 56.211 27.2682 56.4714 27.5286Z" fill="#03A365"/>
<path fill-rule="evenodd" clip-rule="evenodd" d="M59.138 30.1952C59.3984 30.4556 59.3984 30.8777 59.138 31.1381L54.138 36.1381C53.8777 36.3984 53.4556 36.3984 53.1952 36.1381L52.1952 35.1381C51.9349 34.8777 51.9349 34.4556 52.1952 34.1952C52.4556 33.9349 52.8777 33.9349 53.138 34.1952L53.6666 34.7238L58.1952 30.1952C58.4556 29.9349 58.8777 29.9349 59.138 30.1952Z" fill="#03A365"/>
</g>
<path d="M0.5 4C0.5 2.067 2.067 0.5 4 0.5H100C101.933 0.5 103.5 2.067 103.5 4V60C103.5 61.933 101.933 63.5 100 63.5H4C2.06701 63.5 0.5 61.933 0.5 60V4Z" stroke="#E6E6E6"/>
<defs>
<clipPath id="clip0_2183_1103">
<path d="M0 4C0 1.79086 1.79086 0 4 0H100C102.209 0 104 1.79086 104 4V60C104 62.2091 102.209 64 100 64H4C1.79086 64 0 62.2091 0 60V4Z" fill="white"/>
</clipPath>
<clipPath id="clip1_2183_1103">
<path d="M12 16C12 13.7909 13.7909 12 16 12H104V64H12V16Z" fill="white"/>
</clipPath>
<clipPath id="clip2_2183_1103">
<rect width="92" height="30.7447" fill="white" transform="translate(12 33.2553)"/>
</clipPath>
</defs>
</svg>
