<svg width="20" height="20" viewBox="0 0 20 20" fill="none" xmlns="http://www.w3.org/2000/svg">
<path fill-rule="evenodd" clip-rule="evenodd" d="M3.23223 1.56555C3.70107 1.0967 4.33696 0.833313 5 0.833313H12.5C12.721 0.833313 12.933 0.92111 13.0893 1.07739L17.2559 5.24406C17.4122 5.40034 17.5 5.6123 17.5 5.83331V16.6666C17.5 17.3297 17.2366 17.9656 16.7678 18.4344C16.2989 18.9033 15.663 19.1666 15 19.1666H5C4.33696 19.1666 3.70107 18.9033 3.23223 18.4344C2.76339 17.9656 2.5 17.3297 2.5 16.6666V3.33331C2.5 2.67027 2.76339 2.03439 3.23223 1.56555ZM5 2.49998C4.77899 2.49998 4.56702 2.58778 4.41074 2.74406C4.25446 2.90034 4.16667 3.1123 4.16667 3.33331V16.6666C4.16667 16.8877 4.25446 17.0996 4.41074 17.2559C4.56702 17.4122 4.77899 17.5 5 17.5H15C15.221 17.5 15.433 17.4122 15.5893 17.2559C15.7455 17.0996 15.8333 16.8877 15.8333 16.6666V6.17849L12.1548 2.49998H5Z" fill="#03A365"/>
<path fill-rule="evenodd" clip-rule="evenodd" d="M11.6667 0.833313C12.1269 0.833313 12.5 1.20641 12.5 1.66665V4.99998C12.5 5.22099 12.5878 5.43295 12.7441 5.58924C12.9004 5.74552 13.1123 5.83331 13.3333 5.83331H16.6667C17.1269 5.83331 17.5 6.20641 17.5 6.66665C17.5 7.12688 17.1269 7.49998 16.6667 7.49998H13.3333C12.6703 7.49998 12.0344 7.23659 11.5656 6.76775C11.0967 6.29891 10.8333 5.66302 10.8333 4.99998V1.66665C10.8333 1.20641 11.2064 0.833313 11.6667 0.833313Z" fill="#03A365"/>
<path fill-rule="evenodd" clip-rule="evenodd" d="M5.83333 7.49998C5.83333 7.03974 6.20643 6.66665 6.66667 6.66665H8.33333C8.79357 6.66665 9.16667 7.03974 9.16667 7.49998C9.16667 7.96022 8.79357 8.33331 8.33333 8.33331H6.66667C6.20643 8.33331 5.83333 7.96022 5.83333 7.49998Z" fill="#03A365"/>
<path fill-rule="evenodd" clip-rule="evenodd" d="M5.83333 10.8333C5.83333 10.3731 6.20643 9.99998 6.66667 9.99998H13.3333C13.7936 9.99998 14.1667 10.3731 14.1667 10.8333C14.1667 11.2935 13.7936 11.6666 13.3333 11.6666H6.66667C6.20643 11.6666 5.83333 11.2935 5.83333 10.8333Z" fill="#03A365"/>
<path fill-rule="evenodd" clip-rule="evenodd" d="M5.83333 14.1666C5.83333 13.7064 6.20643 13.3333 6.66667 13.3333H13.3333C13.7936 13.3333 14.1667 13.7064 14.1667 14.1666C14.1667 14.6269 13.7936 15 13.3333 15H6.66667C6.20643 15 5.83333 14.6269 5.83333 14.1666Z" fill="#03A365"/>
</svg>
