<svg width="104" height="64" viewBox="0 0 104 64" fill="none" xmlns="http://www.w3.org/2000/svg">
<path d="M0.5 4C0.5 2.067 2.067 0.5 4 0.5H100C101.933 0.5 103.5 2.067 103.5 4V60C103.5 61.933 101.933 63.5 100 63.5H4C2.06701 63.5 0.5 61.933 0.5 60V4Z" fill="#F2F2F2"/>
<path d="M0.5 4C0.5 2.067 2.067 0.5 4 0.5H100C101.933 0.5 103.5 2.067 103.5 4V60C103.5 61.933 101.933 63.5 100 63.5H4C2.06701 63.5 0.5 61.933 0.5 60V4Z" stroke="#E6E6E6"/>
<g clip-path="url(#clip0_2183_918)">
<mask id="path-2-inside-1_2183_918" fill="white">
<path d="M12 16C12 13.7909 13.7909 12 16 12H104V64H12V16Z"/>
</mask>
<path d="M12 16C12 13.7909 13.7909 12 16 12H104V64H12V16Z" fill="white"/>
<rect width="92" height="20.6809" transform="translate(12 12)" fill="white"/>
<path opacity="0.5" d="M20.9043 18.7501H25.9309V19.4682H20.9043V18.7501ZM20.9043 20.9043H24.4947V21.6224H20.9043V20.9043ZM20.9043 23.0586H25.9309V23.7767H20.9043V23.0586ZM20.9043 25.2128H24.4947V25.9309H20.9043V25.2128ZM18.75 18.032H19.4681V26.649H18.75V18.032Z" fill="#404040"/>
<path opacity="0.5" d="M33.8294 24.0633L30.957 21.1909L31.3592 20.7888L33.8294 23.259L36.2996 20.7888L36.7017 21.1909L33.8294 24.0633Z" fill="#404040"/>
<g opacity="0.5">
<path d="M49.5736 25.5719H46.2524V19.1091H49.3043C49.6641 19.1092 50.0164 19.2122 50.3196 19.406C50.6227 19.5998 50.8641 19.8763 51.0151 20.2029C51.1661 20.5295 51.2205 20.8925 51.1718 21.249C51.1232 21.6055 50.9735 21.9407 50.7405 22.2148C51.0448 22.4583 51.2663 22.79 51.3743 23.1645C51.4823 23.539 51.4716 23.9377 51.3437 24.3058C51.2157 24.674 50.9768 24.9934 50.6598 25.2201C50.3428 25.4468 49.9633 25.5697 49.5736 25.5719ZM47.3296 24.4948H49.5664C49.6725 24.4948 49.7775 24.4739 49.8756 24.4333C49.9736 24.3927 50.0626 24.3332 50.1376 24.2582C50.2127 24.1831 50.2722 24.0941 50.3128 23.9961C50.3534 23.8981 50.3742 23.793 50.3742 23.6869C50.3742 23.5808 50.3534 23.4758 50.3128 23.3778C50.2722 23.2798 50.2127 23.1907 50.1376 23.1157C50.0626 23.0407 49.9736 22.9812 49.8756 22.9406C49.7775 22.9 49.6725 22.8791 49.5664 22.8791H47.3296V24.4948ZM47.3296 21.8019H49.3043C49.4104 21.8019 49.5154 21.7811 49.6135 21.7405C49.7115 21.6999 49.8005 21.6404 49.8755 21.5653C49.9506 21.4903 50.0101 21.4013 50.0507 21.3033C50.0913 21.2052 50.1121 21.1002 50.1121 20.9941C50.1121 20.888 50.0913 20.783 50.0507 20.685C50.0101 20.5869 49.9506 20.4979 49.8755 20.4229C49.8005 20.3479 49.7115 20.2884 49.6135 20.2478C49.5154 20.2072 49.4104 20.1863 49.3043 20.1863H47.3296V21.8019Z" fill="#404040"/>
</g>
<g opacity="0.5">
<path d="M69.2307 19.8272V19.1091H64.5632V19.8272H66.4086L64.8396 24.8538H62.7679V25.5718H67.4355V24.8538H65.59L67.159 19.8272H69.2307Z" fill="#404040"/>
</g>
<g opacity="0.5">
<path d="M78.9259 25.9309H87.5429V26.649H78.9259V25.9309ZM83.2344 24.8538C82.5678 24.8538 81.9286 24.589 81.4572 24.1176C80.9859 23.6463 80.7211 23.007 80.7211 22.3405V18.391H81.4392V22.3405C81.4392 22.8166 81.6283 23.2732 81.965 23.6099C82.3017 23.9465 82.7583 24.1357 83.2344 24.1357C83.7105 24.1357 84.1672 23.9465 84.5038 23.6099C84.8405 23.2732 85.0296 22.8166 85.0296 22.3405V18.391H85.7477V22.3405C85.7477 23.007 85.4829 23.6463 85.0116 24.1176C84.5402 24.589 83.901 24.8538 83.2344 24.8538Z" fill="#404040"/>
</g>
<g opacity="0.5">
<path d="M104.489 22.1343H100.883C100.723 22.0914 100.563 22.0513 100.402 22.014C99.3942 21.7756 98.824 21.6011 98.824 20.785C98.8158 20.6441 98.8367 20.503 98.8853 20.3705C98.9339 20.2381 99.0092 20.117 99.1066 20.0148C99.4115 19.764 99.7935 19.6258 100.188 19.6235C101.204 19.5983 101.673 19.943 102.056 20.4672L102.636 20.0436C102.365 19.6538 101.994 19.343 101.564 19.143C101.133 18.9431 100.657 18.8611 100.184 18.9054C99.6028 18.9091 99.0424 19.1206 98.6039 19.5018C98.4377 19.6703 98.3078 19.8711 98.2222 20.0918C98.1367 20.3125 98.0972 20.5484 98.1063 20.785C98.0905 21.0438 98.1391 21.3025 98.2478 21.538C98.3564 21.7734 98.5217 21.9783 98.7288 22.1343H95.8719V22.8523H100.774C101.48 23.057 101.902 23.3234 101.913 24.058C101.925 24.2149 101.903 24.3725 101.85 24.5206C101.796 24.6686 101.712 24.8038 101.603 24.9172C101.223 25.2167 100.751 25.3752 100.268 25.3656C99.9067 25.3552 99.5528 25.2628 99.2328 25.0954C98.9127 24.928 98.6349 24.69 98.4204 24.3995L97.87 24.8605C98.1489 25.2321 98.5087 25.5354 98.9222 25.7473C99.3357 25.9593 99.792 26.0743 100.257 26.0837H100.292C100.956 26.0913 101.599 25.8594 102.105 25.4306C102.284 25.2496 102.424 25.033 102.515 24.7947C102.605 24.5564 102.645 24.3018 102.631 24.0472C102.644 23.6118 102.497 23.1866 102.218 22.8523H104.489V22.1343Z" fill="#404040"/>
</g>
<rect x="12" y="32.6808" width="92" height="0.574468" rx="0.287234" fill="#E6E6E6"/>
<g clip-path="url(#clip1_2183_918)">
<rect width="92" height="30.7447" transform="translate(12 33.2553)" fill="white"/>
<rect x="20" y="41.2553" width="186.128" height="8" rx="1.7234" fill="#F2F2F2"/>
<rect x="20" y="53.2553" width="152.234" height="8" rx="1.7234" fill="#F2F2F2"/>
</g>
</g>
<path d="M11 16C11 13.2386 13.2386 11 16 11H104V13H16C14.3431 13 13 14.3431 13 16H11ZM104 64H12H104ZM11 64V16C11 13.2386 13.2386 11 16 11V13C14.3431 13 13 14.3431 13 16V64H11ZM104 12V64V12Z" fill="#E6E6E6" mask="url(#path-2-inside-1_2183_918)"/>
<defs>
<clipPath id="clip0_2183_918">
<path d="M12 16C12 13.7909 13.7909 12 16 12H104V64H12V16Z" fill="white"/>
</clipPath>
<clipPath id="clip1_2183_918">
<rect width="92" height="30.7447" fill="white" transform="translate(12 33.2553)"/>
</clipPath>
</defs>
</svg>
