<svg width="20" height="20" viewBox="0 0 20 20" fill="none" xmlns="http://www.w3.org/2000/svg">
<path fill-rule="evenodd" clip-rule="evenodd" d="M9.99867 4.66668C8.58463 4.66701 7.22858 5.22887 6.22868 6.22877C5.22849 7.22897 4.66659 8.58552 4.66659 10C4.66659 10.3682 4.36811 10.6667 3.99992 10.6667C3.63173 10.6667 3.33325 10.3682 3.33325 10C3.33325 8.2319 4.03563 6.53621 5.28587 5.28596C6.53612 4.03572 8.23181 3.33334 9.99992 3.33334H10.0024C11.8518 3.34031 13.6269 4.06194 14.9566 5.34737L14.9647 5.35527L16.4713 6.86194C16.7317 7.12229 16.7317 7.5444 16.4713 7.80475C16.211 8.0651 15.7889 8.0651 15.5285 7.80475L14.0259 6.30217C12.9444 5.25857 11.5017 4.67266 9.99867 4.66668Z" fill="#03A365"/>
<path fill-rule="evenodd" clip-rule="evenodd" d="M15.9999 3.33334C16.3681 3.33334 16.6666 3.63182 16.6666 4.00001V7.33334C16.6666 7.70153 16.3681 8.00001 15.9999 8.00001H12.6666C12.2984 8.00001 11.9999 7.70153 11.9999 7.33334C11.9999 6.96515 12.2984 6.66668 12.6666 6.66668H15.3333V4.00001C15.3333 3.63182 15.6317 3.33334 15.9999 3.33334Z" fill="#03A365"/>
<path fill-rule="evenodd" clip-rule="evenodd" d="M15.9999 9.33334C16.3681 9.33334 16.6666 9.63182 16.6666 10C16.6666 11.7681 15.9642 13.4638 14.714 14.7141C13.4637 15.9643 11.768 16.6667 9.99992 16.6667L9.99741 16.6667C8.14801 16.6597 6.37289 15.9381 5.04322 14.6527L5.03518 14.6447L3.52851 13.1381C3.26816 12.8777 3.26816 12.4556 3.52851 12.1953C3.78886 11.9349 4.21097 11.9349 4.47132 12.1953L5.97389 13.6978C7.05546 14.7415 8.49816 15.3274 10.0012 15.3333C11.4152 15.333 12.7713 14.7711 13.7712 13.7712C14.7713 12.7711 15.3333 11.4145 15.3333 10C15.3333 9.63182 15.6317 9.33334 15.9999 9.33334Z" fill="#03A365"/>
<path fill-rule="evenodd" clip-rule="evenodd" d="M3.33325 12.6667C3.33325 12.2985 3.63173 12 3.99992 12H7.33325C7.70144 12 7.99992 12.2985 7.99992 12.6667C7.99992 13.0349 7.70144 13.3333 7.33325 13.3333H4.66659V16C4.66659 16.3682 4.36811 16.6667 3.99992 16.6667C3.63173 16.6667 3.33325 16.3682 3.33325 16V12.6667Z" fill="#03A365"/>
</svg>
