<svg width="20" height="20" viewBox="0 0 20 20" fill="none" xmlns="http://www.w3.org/2000/svg">
<path fill-rule="evenodd" clip-rule="evenodd" d="M9.99695 1.6667L10.0001 1.66669C11.6483 1.66669 13.2594 2.15543 14.6298 3.07111C16.0002 3.98679 17.0683 5.28828 17.6991 6.811C18.3298 8.33371 18.4948 10.0093 18.1733 11.6258C17.8517 13.2423 17.0581 14.7271 15.8926 15.8926C14.7272 17.058 13.2423 17.8517 11.6258 18.1732C10.0093 18.4948 8.33377 18.3298 6.81105 17.699C5.28834 17.0683 3.98685 16.0002 3.07117 14.6298C2.15549 13.2594 1.66675 11.6482 1.66675 10C1.66675 9.53979 2.03984 9.16669 2.50008 9.16669C2.96032 9.16669 3.33341 9.53979 3.33341 10C3.33341 11.3186 3.72441 12.6075 4.45695 13.7038C5.18949 14.8002 6.23069 15.6546 7.44886 16.1592C8.66703 16.6638 10.0075 16.7958 11.3007 16.5386C12.5939 16.2814 13.7818 15.6464 14.7141 14.7141C15.6465 13.7817 16.2814 12.5938 16.5387 11.3006C16.7959 10.0074 16.6639 8.66698 16.1593 7.4488C15.6547 6.23063 14.8002 5.18944 13.7039 4.4569C12.608 3.72464 11.3196 3.33367 10.0016 3.33336C8.12284 3.34083 6.31949 4.07323 4.96755 5.37773L4.51193 5.83336H6.66675C7.12699 5.83336 7.50008 6.20646 7.50008 6.66669C7.50008 7.12693 7.12699 7.50003 6.66675 7.50003H2.50008C2.03984 7.50003 1.66675 7.12693 1.66675 6.66669V2.50003C1.66675 2.03979 2.03984 1.66669 2.50008 1.66669C2.96032 1.66669 3.33341 2.03979 3.33341 2.50003V4.65485L3.79416 4.1941L3.80421 4.18422C5.4663 2.57744 7.68519 1.6754 9.99695 1.6667ZM10.0001 5.00003C10.4603 5.00003 10.8334 5.37312 10.8334 5.83336V9.485L13.7061 10.9213C14.1177 11.1272 14.2846 11.6277 14.0788 12.0394C13.8729 12.451 13.3724 12.6179 12.9607 12.412L9.6274 10.7454C9.34508 10.6042 9.16675 10.3157 9.16675 10V5.83336C9.16675 5.37312 9.53984 5.00003 10.0001 5.00003Z" fill="#03A365"/>
</svg>
