<svg width="75" height="16" viewBox="0 0 75 16" fill="none" xmlns="http://www.w3.org/2000/svg">
<path d="M23.7516 15.9998C23.0213 15.9998 22.3143 15.8288 21.6306 15.4867C20.9625 15.1446 20.3798 14.6782 19.8826 14.0873V15.8599H17.8315V0H19.8826V5.90083C20.2244 5.4188 20.7294 4.99122 21.3976 4.61802C22.0812 4.24483 22.8659 4.05825 23.7516 4.05825C24.544 4.05825 25.3054 4.21375 26.0357 4.52474C26.766 4.83572 27.3953 5.26331 27.9235 5.80749C28.4674 6.36726 28.8869 7.01255 29.1822 7.74336C29.4929 8.45862 29.6483 9.22051 29.6483 10.0291C29.6483 10.8376 29.4929 11.6073 29.1822 12.3381C28.8869 13.0533 28.4674 13.6908 27.9235 14.2506C27.3953 14.7948 26.766 15.2224 26.0357 15.5333C25.3054 15.8443 24.544 15.9998 23.7516 15.9998ZM23.7516 6.18069C23.2388 6.18069 22.7416 6.28175 22.2599 6.48391C21.7938 6.67048 21.3898 6.94258 21.048 7.30018C20.7061 7.65784 20.4342 8.07766 20.2322 8.55968C20.0302 9.02612 19.9292 9.51591 19.9292 10.0291C19.9292 11.0708 20.3021 11.9804 21.048 12.7579C21.3898 13.1155 21.7938 13.3954 22.2599 13.5975C22.7416 13.7996 23.2388 13.9007 23.7516 13.9007C24.2643 13.9007 24.7538 13.7996 25.2199 13.5975C25.6861 13.3954 26.0901 13.1155 26.4319 12.7579C27.1777 11.9804 27.5506 11.0708 27.5506 10.0291C27.5506 9.51591 27.4497 9.02612 27.2476 8.55968C27.0457 8.07766 26.7737 7.65784 26.4319 7.30018C26.0901 6.94258 25.6861 6.67048 25.2199 6.48391C24.7538 6.28175 24.2643 6.18069 23.7516 6.18069Z" fill="#03A365"/>
<path d="M32.8067 10.8585C32.8067 11.2376 32.9409 11.6324 33.2092 12.0432C33.4934 12.4538 33.817 12.8014 34.18 13.0857C34.8432 13.6069 35.6165 13.8676 36.5002 13.8676C37.9053 13.8676 39.0496 13.1884 39.9338 11.8299L41.7333 12.8961C41.1177 13.8913 40.36 14.6574 39.4602 15.1944C38.5605 15.7315 37.5738 16 36.5002 16C35.6952 16 34.9296 15.85 34.2037 15.5498C33.4776 15.2339 32.8383 14.7995 32.2858 14.2467C31.7333 13.6938 31.2993 13.0541 30.9835 12.3275C30.6836 11.6009 30.5337 10.8347 30.5337 10.0292C30.5337 9.22358 30.6836 8.45746 30.9835 7.73084C31.2993 6.98845 31.7333 6.34082 32.2858 5.78794C32.8225 5.23512 33.4539 4.80859 34.18 4.5085C34.9218 4.20836 35.6952 4.05829 36.5002 4.05829C37.3053 4.05829 38.0708 4.20836 38.7972 4.5085C39.5388 4.80859 40.1784 5.23512 40.7149 5.78794C41.8832 6.98845 42.4671 8.37847 42.4671 9.95811C42.4671 10.2424 42.4437 10.5425 42.3963 10.8585H32.8067ZM36.5002 6.00119C35.8533 6.00119 35.2455 6.14335 34.6772 6.42767C34.109 6.71204 33.6512 7.09112 33.3039 7.565C32.9724 8.02307 32.8067 8.51277 32.8067 9.03401H40.194C40.194 8.51277 40.0207 8.02307 39.6731 7.565C39.3416 7.09112 38.8919 6.71204 38.3237 6.42767C37.7554 6.14335 37.1476 6.00119 36.5002 6.00119Z" fill="#03A365"/>
<path d="M53.2348 15.8599V14.0873C52.7309 14.673 52.0721 15.1294 51.4105 15.4776C50.7489 15.8257 50.0482 15.9999 49.3075 15.9999C48.4882 15.9999 47.7162 15.8495 46.9916 15.5488C46.2827 15.2481 45.6528 14.8207 45.1015 14.2668C44.5498 13.7287 44.1167 13.0956 43.8017 12.3675C43.5024 11.6237 43.3525 10.8481 43.3525 10.041C43.3525 9.23378 43.5024 8.46615 43.8017 7.73811C44.1167 6.99424 44.5498 6.34532 45.1015 5.79135C45.6528 5.23742 46.2827 4.8101 46.9916 4.50937C47.7162 4.20863 48.4882 4.05829 49.3075 4.05829C50.0638 4.05829 50.7728 4.21659 51.4344 4.53309C52.1116 4.84964 52.7622 5.2976 53.2348 5.86735V4.29153H55.2859V15.8599H53.2348ZM49.3075 6.17121C48.7875 6.17121 48.2836 6.27411 47.7953 6.47985C47.3227 6.66978 46.913 6.93884 46.5663 7.28702C46.2197 7.63521 45.9443 8.05466 45.7392 8.54528C45.5502 9.02008 45.456 9.51866 45.456 10.041C45.456 10.5633 45.5502 11.0618 45.7392 11.5366C45.9443 12.0114 46.2197 12.4229 46.5663 12.7711C46.913 13.1193 47.3227 13.3963 47.7953 13.6021C48.2836 13.792 48.7875 13.8869 49.3075 13.8869C49.8275 13.8869 50.3236 13.792 50.7962 13.6021C51.2689 13.3963 51.6785 13.1193 52.0252 12.7711C52.3714 12.4229 52.6394 12.0114 52.8284 11.5366C53.0335 11.0618 53.1355 10.5633 53.1355 10.041C53.1355 9.51866 53.0335 9.02008 52.8284 8.54528C52.6394 8.05466 52.3714 7.63521 52.0252 7.28702C51.6785 6.93884 51.2689 6.66978 50.7962 6.47985C50.3236 6.27411 49.8275 6.17121 49.3075 6.17121Z" fill="#03A365"/>
<path d="M62.8844 15.8599H60.9033L56.312 4.2915H58.5263L61.9056 12.7112L65.2619 4.2915H67.4762L62.8844 15.8599Z" fill="#03A365"/>
<path d="M73.0666 6.49319C72.6924 6.32146 72.3103 6.14233 72.0137 6.14233C71.3898 6.14233 70.8754 6.36086 70.4694 6.79797C70.0326 7.26629 69.8611 7.80486 69.8611 8.41365V15.8599H67.8022V8.41365C67.8022 7.5707 68.0128 6.79797 68.434 6.09548C68.8708 5.393 69.4634 4.84666 70.2124 4.45636C70.7737 4.19098 71.3742 4.05829 72.0137 4.05829C72.5287 4.05829 73.0202 4.15194 73.4882 4.3393C73.9563 4.52661 74.4657 4.84964 74.9806 5.27112L73.0666 6.49319Z" fill="#03A365"/>
<path d="M3.28981 7.81692V0H5.37317V8.14083L11.4544 6.08451L12.13 8.07044L5.89404 10.1831L7.70995 11.8451L10.3141 8.70423L11.9189 10.0423L9.25836 13.2535L10.5534 14.4366L9.14577 15.9859L7.92108 14.8732L6.99202 16L5.38728 14.662L6.37262 13.4648L5.37317 12.5493V16H3.30388V11.0423L0.713765 11.9155L0.0380859 9.94368L1.85399 9.33802L0.516707 8.11269L1.92439 6.5634L3.28981 7.81692Z" fill="black"/>
</svg>
